<?xml version="1.0" encoding="UTF-8" standalone="no"?>
<!-- Created with Inkscape (http://www.inkscape.org/) -->

<svg
   xmlns:dc="http://purl.org/dc/elements/1.1/"
   xmlns:cc="http://creativecommons.org/ns#"
   xmlns:rdf="http://www.w3.org/1999/02/22-rdf-syntax-ns#"
   xmlns:svg="http://www.w3.org/2000/svg"
   xmlns="http://www.w3.org/2000/svg"
   xmlns:sodipodi="http://sodipodi.sourceforge.net/DTD/sodipodi-0.dtd"
   xmlns:inkscape="http://www.inkscape.org/namespaces/inkscape"
   width="79.185257mm"
   height="79.185257mm"
   viewBox="0 0 79.185257 79.185257"
   version="1.1"
   id="svg8"
   inkscape:version="0.92.1 r15371"
   sodipodi:docname="logo.svg"
   inkscape:export-filename="C:\Users\mikeh\Desktop\ffit_website\logo.png"
   inkscape:export-xdpi="82.116295"
   inkscape:export-ydpi="82.116295">
  <defs
     id="defs2" />
  <sodipodi:namedview
     id="base"
     pagecolor="#ffffff"
     bordercolor="#666666"
     borderopacity="1.0"
     inkscape:pageopacity="0.0"
     inkscape:pageshadow="2"
     inkscape:zoom="1.4"
     inkscape:cx="113.04497"
     inkscape:cy="13.299525"
     inkscape:document-units="mm"
     inkscape:current-layer="layer1"
     showgrid="false"
     fit-margin-top="0.4"
     fit-margin-left="0"
     fit-margin-right="0"
     fit-margin-bottom="0"
     inkscape:window-width="1650"
     inkscape:window-height="1109"
     inkscape:window-x="141"
     inkscape:window-y="68"
     inkscape:window-maximized="0" />
  <metadata
     id="metadata5">
    <rdf:RDF>
      <cc:Work
         rdf:about="">
        <dc:format>image/svg+xml</dc:format>
        <dc:type
           rdf:resource="http://purl.org/dc/dcmitype/StillImage" />
        <dc:title></dc:title>
      </cc:Work>
    </rdf:RDF>
  </metadata>
  <g
     inkscape:label="Layer 1"
     inkscape:groupmode="layer"
     id="layer1"
     transform="translate(-52.47555,-32.998525)">
    <path
       style="fill:#4d4d4d;stroke-width:1"
       d="m 68.319203,101.54482 c -5.835025,-0.83981 -11.134597,-4.597571 -13.845623,-9.817521 -1.517632,-2.922121 -1.9935,-4.919524 -1.998013,-8.386428 -0.0069,-5.302449 1.623762,-9.34511 5.231204,-12.968941 1.180171,-1.185532 2.812346,-2.531168 3.627056,-2.990302 l 1.481291,-0.834789 0.1554,-2.744153 c 0.347032,-6.128122 2.37767,-10.396734 7.026147,-14.769688 5.696031,-5.358417 14.182599,-6.94385 21.730529,-4.059626 4.465169,1.706237 8.950796,5.78538 11.035036,10.035048 0.39847,0.812484 0.80434,1.477243 0.90191,1.477243 0.0976,0 0.85351,-0.407126 1.67986,-0.904726 5.13692,-3.093288 11.88684,-1.002452 14.62055,4.528812 0.92425,1.870096 0.98943,2.16099 0.98921,4.414488 -1.9e-4,2.015773 -0.1169,2.693154 -0.70974,4.11943 -0.39022,0.938831 -0.68388,1.726451 -0.65257,1.750266 0.0313,0.02381 0.65719,0.239276 1.39084,0.478798 3.55822,1.161677 7.26836,4.43784 8.99141,7.939682 3.06587,6.230932 1.89287,13.263876 -3.02739,18.151256 -2.0644,2.05062 -4.01946,3.270511 -6.63648,4.140941 -1.3654,0.45414 -2.99008,0.48618 -26.326044,0.51923 -13.678958,0.0194 -25.228021,-0.0162 -25.664583,-0.079 z"
       id="path4509"
       inkscape:connector-curvature="0" />
    <path
       style="opacity:0.93999999;fill:#b3b3b3;stroke-width:1"
       d="m 72.205783,99.425114 c -0.909089,-0.40692 -1.732115,-1.27676 -2.082122,-2.20052 -0.173084,-0.45681 -0.263335,-4.71837 -0.263335,-12.434346 0,-11.499681 0.01071,-11.758316 0.522885,-12.669674 0.64511,-1.147814 2.058533,-1.976115 3.372069,-1.976115 h 0.988491 l 0.116353,-5.369866 c 0.09014,-4.161613 0.212809,-5.67539 0.54504,-6.727754 1.45891,-4.621282 4.870465,-8.66408 9.022318,-10.691722 5.157551,-2.518794 10.14838,-2.518794 15.305933,0 1.953405,0.953974 2.698705,1.499015 4.464685,3.264989 1.76598,1.765983 2.31101,2.511283 3.265,4.464675 1.56155,3.197506 1.89968,5.085112 1.89968,10.60524 v 4.454438 h 1.01567 c 1.34663,0 2.74854,0.818345 3.40606,1.988235 0.5244,0.933045 0.52901,1.063375 0.46116,13.038205 -0.0667,11.776425 -0.082,12.113725 -0.57757,12.777305 -0.27996,0.37486 -0.81579,0.91065 -1.19073,1.19061 -0.67349,0.50291 -0.91542,0.5097 -20.106315,0.56344 -15.813869,0.0443 -19.562283,-0.008 -20.165272,-0.27714 z m 29.710517,-34.286329 -0.0837,-5.005666 -0.79836,-1.620733 c -0.97466,-1.978587 -2.961846,-3.933604 -4.941236,-4.861217 -1.259873,-0.590419 -1.713028,-0.665582 -4.012612,-0.665582 -2.273567,0 -2.759336,0.07848 -3.95025,0.638493 -2.020783,0.950196 -4.04221,2.923763 -4.996615,4.878312 l -0.802285,1.643007 -0.08519,4.999535 -0.08519,4.999525 h 9.919502 9.919506 z"
       id="path4507"
       inkscape:connector-curvature="0" />
  </g>
</svg>
