<?xml version="1.0" encoding="UTF-8" standalone="no"?>
<svg
   xmlns:dc="http://purl.org/dc/elements/1.1/"
   xmlns:cc="http://creativecommons.org/ns#"
   xmlns:rdf="http://www.w3.org/1999/02/22-rdf-syntax-ns#"
   xmlns:svg="http://www.w3.org/2000/svg"
   xmlns="http://www.w3.org/2000/svg"
   xmlns:sodipodi="http://sodipodi.sourceforge.net/DTD/sodipodi-0.dtd"
   xmlns:inkscape="http://www.inkscape.org/namespaces/inkscape"
   id="svg8"
   version="1.1"
   viewBox="0 0 47.625 6.7846484"
   height="6.7846484mm"
   width="47.625mm"
   sodipodi:docname="aws_certified.svg"
   inkscape:version="0.92.2 (5c3e80d, 2017-08-06)">
  <sodipodi:namedview
     pagecolor="#ffffff"
     bordercolor="#666666"
     borderopacity="1"
     objecttolerance="10"
     gridtolerance="10"
     guidetolerance="10"
     inkscape:pageopacity="0"
     inkscape:pageshadow="2"
     inkscape:window-width="1541"
     inkscape:window-height="832"
     id="namedview954"
     showgrid="false"
     fit-margin-top="0"
     fit-margin-left="0"
     fit-margin-right="0"
     fit-margin-bottom="0"
     inkscape:zoom="4.1245375"
     inkscape:cx="94.921867"
     inkscape:cy="24.043145"
     inkscape:window-x="2117"
     inkscape:window-y="188"
     inkscape:window-maximized="0"
     inkscape:current-layer="svg8" />
  <defs
     id="defs2" />
  <metadata
     id="metadata5">
    <rdf:RDF>
      <cc:Work
         rdf:about="">
        <dc:format>image/svg+xml</dc:format>
        <dc:type
           rdf:resource="http://purl.org/dc/dcmitype/StillImage" />
        <dc:title></dc:title>
      </cc:Work>
    </rdf:RDF>
  </metadata>
  <g
     transform="matrix(0.11837002,0,0,0.11837002,3.2316176,-10.735279)"
     id="layer1">
    <g
       id="g823"
       transform="matrix(0.35277777,0,0,-0.35277777,-32.62034,154.8974)">
      <g
         id="g825"
         transform="scale(0.1)">
        <path
           d="m 5848.47,1164.04 c -12.45,88.31 -97.02,155.5 -194.07,155.5 -175.39,0 -241.31,-149.27 -241.31,-304.79 0,-148.012 65.92,-297.301 241.31,-297.301 119.41,0 186.62,82.11 201.54,199.039 h 189.07 c -19.89,-221.418 -172.92,-363.25 -390.61,-363.25 -274.9,0 -436.61,205.282 -436.61,461.512 0,263.75 161.71,469 436.61,469 195.3,0 359.51,-114.46 383.16,-319.71 h -189.09"
           style="fill:#67696e;fill-opacity:1;fill-rule:nonzero;stroke:none"
           id="path827"
           inkscape:connector-curvature="0" />
        <path
           d="m 6157.15,1462.6 h 664.3 v -164.21 h -469 v -190.33 h 430.44 V 956.289 H 6352.45 V 738.602 h 478.94 V 574.398 H 6157.15 V 1462.6"
           style="fill:#67696e;fill-opacity:1;fill-rule:nonzero;stroke:none"
           id="path829"
           inkscape:connector-curvature="0" />
        <path
           d="m 7150.29,1060.8 h 213.95 c 87.11,0 134.35,37.3 134.35,126.88 0,85.84 -47.24,123.14 -134.35,123.14 h -213.95 z m -195.3,401.78 h 478.94 c 159.24,0 259.96,-110.7 259.96,-245.05 0,-104.49 -42.27,-182.86 -140.55,-222.659 v -2.5 c 95.78,-24.859 123.17,-118.172 129.37,-207.742 3.74,-55.957 2.48,-160.469 37.31,-210.219 h -195.31 c -23.62,55.981 -21.12,141.789 -31.09,212.719 -13.68,93.281 -49.75,134.32 -148.03,134.32 h -195.3 V 574.41 h -195.3 v 888.17"
           style="fill:#67696e;fill-opacity:1;fill-rule:nonzero;stroke:none"
           id="path831"
           inkscape:connector-curvature="0" />
        <path
           d="m 8026.1,1298.4 h -266.2 v 164.21 h 727.73 V 1298.4 H 8221.4 V 574.379 H 8026.1 V 1298.4"
           style="fill:#67696e;fill-opacity:1;fill-rule:nonzero;stroke:none"
           id="path833"
           inkscape:connector-curvature="0" />
        <path
           d="m 8573.45,574.391 h 195.301 V 1462.59 H 8573.45 Z"
           style="fill:#67696e;fill-opacity:1;fill-rule:nonzero;stroke:none"
           id="path835"
           inkscape:connector-curvature="0" />
        <path
           d="m 8898.67,1462.6 h 624.5 v -164.21 h -429.19 v -205.25 h 371.95 V 941.379 H 9093.98 V 574.398 H 8898.67 V 1462.6"
           style="fill:#67696e;fill-opacity:1;fill-rule:nonzero;stroke:none"
           id="path837"
           inkscape:connector-curvature="0" />
        <path
           d="m 9652.25,574.391 h 195.301 V 1462.59 H 9652.25 Z"
           style="fill:#67696e;fill-opacity:1;fill-rule:nonzero;stroke:none"
           id="path839"
           inkscape:connector-curvature="0" />
        <path
           d="m 9974.56,1462.6 h 664.34 v -164.21 h -469 v -190.33 h 430.4 V 956.289 h -430.4 V 738.602 h 478.9 V 574.398 H 9974.56 V 1462.6"
           style="fill:#67696e;fill-opacity:1;fill-rule:nonzero;stroke:none"
           id="path841"
           inkscape:connector-curvature="0" />
        <path
           d="m 10964.8,738.602 h 174.1 c 113.2,0 221.4,69.679 221.4,266.218 0,179.13 -62.2,293.59 -256.2,293.59 h -139.3 z m -195.3,723.988 h 383.1 c 230.2,0 403.1,-144.29 403.1,-439.11 0,-257.519 -131.9,-449.089 -403.1,-449.089 h -383.1 v 888.199"
           style="fill:#67696e;fill-opacity:1;fill-rule:nonzero;stroke:none"
           id="path843"
           inkscape:connector-curvature="0" />
        <path
           d="m 3326.76,453.84 769.95,-258.602 768.98,258.731 V 1568.94 l -768.23,251.04 -769.7,-251.04 -1,-1115.1"
           style="fill:#f79310;fill-opacity:1;fill-rule:nonzero;stroke:none"
           id="path845"
           inkscape:connector-curvature="0" />
        <path
           d="M 4580.61,1193.88 3993.6,610.551 3611.84,994.73 l 166.76,165.74 216.05,-217.419 420.25,417.609 165.71,-166.78"
           style="fill:#ffffff;fill-opacity:1;fill-rule:nonzero;stroke:none"
           id="path847"
           inkscape:connector-curvature="0" />
        <path
           d="m 696.621,997.941 c -38.082,-37.043 -117.445,-38.781 -187.238,-52.89 -69.82,-15.891 -133.301,-42.313 -133.301,-134 0,-93.449 65.063,-116.403 138.059,-116.403 176.14,0 182.48,155.184 182.48,209.84 z M 176.156,1183.08 c 12.711,234.49 201.512,305.03 385.578,305.03 163.457,0 360.211,-40.58 360.211,-259.21 V 754.609 c 0,-82.859 7.926,-165.738 28.567,-202.781 h -228.52 c -7.929,28.223 -14.242,58.223 -15.855,88.184 C 634.754,557.129 530.023,527.16 430.047,527.16 c -155.5,0 -279.262,86.41 -279.262,273.301 0,206.289 139.617,255.659 279.262,276.839 138.031,22.9 266.574,17.6 266.574,119.89 0,107.56 -66.648,123.41 -145.984,123.41 -85.68,0 -141.231,-38.78 -149.16,-137.52 H 176.156"
           style="fill:#3e3c40;fill-opacity:1;fill-rule:nonzero;stroke:none"
           id="path849"
           inkscape:connector-curvature="0" />
        <path
           d="m 1949.09,551.852 h -231.67 l -145.98,611.818 h -3.17 L 1428.62,551.852 H 1195.37 L 935.141,1463.41 h 238.009 l 150.77,-618.859 h 3.17 l 136.44,618.859 h 218.98 l 139.65,-617.109 h 3.17 l 150.74,617.109 h 231.67 L 1949.09,551.852"
           style="fill:#3e3c40;fill-opacity:1;fill-rule:nonzero;stroke:none"
           id="path851"
           inkscape:connector-curvature="0" />
        <path
           d="m 2404.1,848.07 c 1.58,-109.332 84.09,-153.398 172.97,-153.398 65.03,0 147.54,28.219 147.54,116.367 0,75.813 -93.61,102.289 -255.47,141.07 -130.11,31.711 -260.21,82.851 -260.21,243.331 0,232.71 180.87,292.67 357.01,292.67 179.31,0 344.33,-67 361.79,-290.93 h -214.22 c -6.34,97 -72.99,123.41 -153.91,123.41 -50.8,0 -125.35,-10.56 -125.35,-84.63 0,-89.92 126.93,-102.26 255.45,-135.77 131.72,-33.49 260.23,-86.38 260.23,-255.659 0,-239.781 -187.21,-317.371 -374.48,-317.371 -190.41,0 -376.06,79.36 -385.58,320.91 h 214.23"
           style="fill:#3e3c40;fill-opacity:1;fill-rule:nonzero;stroke:none"
           id="path853"
           inkscape:connector-curvature="0" />
      </g>
    </g>
  </g>
</svg>
